{"title":"Ahmed Chawki Ft. Pitbull &amp; Mandinga - Habibi I Love You [Mus","uid":10901308,"size":102447472,"categoryP":"video","categoryS":"music_videos","magnet":"?xt=urn:btih:3a67471d68efab5560ba10a2bc0bbe1f9267fe00&amp;dn=Ahmed+Chawki+Ft.+Pitbull+%26amp%3B+Mandinga+-+Habibi+I+Love+You+%5BMus&amp;tr=udp%3A%2F%2Ftracker.openbittorrent.com%3A80&amp;tr=udp%3A%2F%2Fopen.demonii.com%3A1337&amp;tr=udp%3A%2F%2Ftracker.coppersurfer.tk%3A6969&amp;tr=udp%3A%2F%2Fexodus.desync.com%3A6969","seeders":4,"leechers":0,"uploader":"Sbyky","files":1,"time":1409188712,"description":"\n\nGeneral\nComplete name                            : Ahmed Chawki Ft. Pitbull &amp; Mandinga - Habibi I Love You [Music Video] 1080p [Sbyky].MP4\nFormat                                   : MPEG-4\nFormat profile                           : Base Media\nCodec ID                                 : isom\nFile size                                : 97.7 MiB\nDuration                                 : 3mn 52s\nOverall bit rate mode                    : Variable\nOverall bit rate                         : 3 528 Kbps\nEncoded date                             : UTC 2014-03-07 10:13:51\nTagged date                              : UTC 2014-03-07 10:13:51\n\nVideo\nID                                       : 1\nFormat                                   : AVC\nFormat/Info                              : Advanced Video Codec\nFormat profile                           : &lt;a class=&quot;__cf_email__&quot; href=&quot;/cdn-cgi/l/email-protection&quot; data-cfemail=&quot;337b5a545b737f071d03&quot;&gt;[email&amp;#160;protected]&lt;/a&gt;&lt;script cf-hash='f9e31' type=&quot;text/javascript&quot;&gt;\n/* &lt;![CDATA[ */!function(){try{var t=&quot;currentScript&quot;in document?document.currentScript:function(){for(var t=document.getElementsByTagName(&quot;script&quot;),e=t.length;e--;)if(t[e].getAttribute(&quot;cf-hash&quot;))return t[e]}();if(t&amp;&amp;t.previousSibling){var e,r,n,i,c=t.previousSibling,a=c.getAttribute(&quot;data-cfemail&quot;);if(a){for(e=&quot;&quot;,r=parseInt(a.substr(0,2),16),n=2;a.length-n;n+=2)i=parseInt(a.substr(n,2),16)^r,e+=String.fromCharCode(i);e=document.createTextNode(e),c.parentNode.replaceChild(e,c)}}}catch(u){}}();/* ]]&gt; */&lt;/script&gt;\nFormat settings, CABAC                   : Yes\nFormat settings, ReFrames                : 3 frames\nCodec ID                                 : avc1\nCodec ID/Info                            : Advanced Video Coding\nDuration                                 : 3mn 52s\nDuration_LastFrame                       : -39ms\nBit rate                                 : 3 401 Kbps\nWidth                                    : 1 920 pixels\nHeight                                   : 1 080 pixels\nDisplay aspect ratio                     : 16:9\nFrame rate mode                          : Constant\nFrame rate                               : 25.000 fps\nColor space                              : YUV\nChroma subsampling                       : 4:2:0\nBit depth                                : 8 bits\nScan type                                : Progressive\nBits/(Pixel*Frame)                       : 0.066\nStream size                              : 94.1 MiB (96%)\nEncoded date                             : UTC 2014-03-07 10:13:51\nTagged date                              : UTC 2014-03-07 10:13:51\n\nAudio\nID                                       : 2\nFormat                                   : AAC\nFormat/Info                              : Advanced Audio Codec\nFormat profile                           : LC\nCodec ID                                 : 40\nDuration                                 : 3mn 52s\nBit rate mode                            : Variable\nBit rate                                 : 126 Kbps\nChannel(s)                               : 2 channels\nChannel positions                        : Front: L R\nSampling rate                            : 44.1 KHz\nCompression mode                         : Lossy\nStream size                              : 3.48 MiB (4%)\nEncoded date                             : UTC 2014-03-07 10:12:12\nTagged date                              : UTC 2014-03-07 10:12:12\n\nShared By Sbyky\n","torrent":{"xt":"urn:btih:3a67471d68efab5560ba10a2bc0bbe1f9267fe00","amp;dn":"Ahmed+Chawki+Ft.+Pitbull+%26amp%3B+Mandinga+-+Habibi+I+Love+You+%5BMus","amp;tr":["udp%3A%2F%2Ftracker.openbittorrent.com%3A80","udp%3A%2F%2Fopen.demonii.com%3A1337","udp%3A%2F%2Ftracker.coppersurfer.tk%3A6969","udp%3A%2F%2Fexodus.desync.com%3A6969"],"infoHash":"3a67471d68efab5560ba10a2bc0bbe1f9267fe00","infoHashBuffer":{"type":"Buffer","data":[58,103,71,29,104,239,171,85,96,186,16,162,188,11,190,31,146,103,254,0]},"announce":[],"urlList":[]}}